<svg xmlns="http://www.w3.org/2000/svg" viewBox="0 0 16 16" shape-rendering="crispEdges">
  <!-- Anel externo dourado -->
  <rect x="5" y="1"  width="6" height="1" fill="#FFD700"/>
  <rect x="3" y="2"  width="2" height="1" fill="#FFD700"/>
  <rect x="11" y="2" width="2" height="1" fill="#FFD700"/>
  <rect x="2" y="3"  width="1" height="10" fill="#FFD700"/>
  <rect x="13" y="3" width="1" height="10" fill="#FFD700"/>
  <rect x="3" y="13" width="2" height="1" fill="#FFD700"/>
  <rect x="11" y="13" width="2" height="1" fill="#FFD700"/>
  <rect x="5" y="14" width="6" height="1" fill="#FFD700"/>
  <!-- Preenchimento interno -->
  <rect x="3" y="3"  width="10" height="10" fill="#E8B800"/>
  <!-- Realce (brilho) -->
  <rect x="4" y="3"  width="4"  height="1" fill="#FFF066"/>
  <rect x="3" y="4"  width="2"  height="4" fill="#FFF066"/>
  <!-- Símbolo Ą (Iene / Nintendo japonesa) -->
  <rect x="6" y="5"  width="1" height="6" fill="#C8A000"/>
  <rect x="9" y="5"  width="1" height="6" fill="#C8A000"/>
  <rect x="6" y="8"  width="4" height="1" fill="#C8A000"/>
  <rect x="6" y="10" width="4" height="1" fill="#C8A000"/>
  <rect x="5" y="6"  width="6" height="1" fill="#C8A000"/>
</svg>
